# xmcd CD database file
#
# Track frame offsets:
#	150
#	21905
#	43735
#	62120
#	83630
#	105745
#	126035
#	148648
#	173588
#	191690
#
# Disc length: 2814 seconds
#
# Revision: 6
# Processed by: cddbd v1.5.2PL0 Copyright (c) Steve Scherf et al.
# Submitted via: jetAudio 7
#
DISCID=840afc0a
DTITLE=張宇 - 消息
DYEAR=1996
DGENRE=Pop
TTITLE0=消息
TTITLE1=圓謊
TTITLE2=都算我的
TTITLE3=捨得
TTITLE4=一腳淺拖
TTITLE5=曲終人散
TTITLE6=心井
TTITLE7=默認
TTITLE8=蛋佬的棉襖
TTITLE9=思念的心打了死結
EXTD=YEAR: 1996
EXTT0=
EXTT1=
EXTT2=
EXTT3=
EXTT4=
EXTT5=
EXTT6=
EXTT7=
EXTT8=
EXTT9=
PLAYORDER=
